<?xml version="1.0" encoding="UTF-8" standalone="no"?><svg xmlns="http://www.w3.org/2000/svg" xmlns:xlink="http://www.w3.org/1999/xlink" contentScriptType="application/ecmascript" contentStyleType="text/css" height="613px" preserveAspectRatio="none" style="width:988px;height:613px;background:#FFFFFF;" version="1.1" viewBox="0 0 988 613" width="988px" zoomAndPan="magnify"><defs><filter height="300%" id="f7soainrvy5ln" width="300%" x="-1" y="-1"><feGaussianBlur result="blurOut" stdDeviation="2.0"/><feColorMatrix in="blurOut" result="blurOut2" type="matrix" values="0 0 0 0 0 0 0 0 0 0 0 0 0 0 0 0 0 0 .4 0"/><feOffset dx="4.0" dy="4.0" in="blurOut2" result="blurOut3"/><feBlend in="SourceGraphic" in2="blurOut3" mode="normal"/></filter></defs><g><!--MD5=[3e80feb690c79b415d93c624fbd62b69]
class 仓库--><rect codeLine="1" fill="#FEFECE" filter="url(#f7soainrvy5ln)" height="112.7754" id="仓库" style="stroke:#A80036;stroke-width:1.5;" width="131" x="57.5" y="7"/><ellipse cx="106.75" cy="23" fill="#ADD1B2" rx="11" ry="11" style="stroke:#A80036;stroke-width:1.0;"/><path d="M109.2231,29.1431 Q108.6421,29.4419 108.0029,29.5913 Q107.3638,29.7407 106.6582,29.7407 Q104.1514,29.7407 102.8315,28.0889 Q101.5117,26.437 101.5117,23.3159 Q101.5117,20.1865 102.8315,18.5347 Q104.1514,16.8828 106.6582,16.8828 Q107.3638,16.8828 108.0112,17.0322 Q108.6587,17.1816 109.2231,17.4805 L109.2231,20.2031 Q108.5923,19.6221 107.9988,19.3523 Q107.4053,19.0825 106.7744,19.0825 Q105.4297,19.0825 104.7449,20.1492 Q104.0601,21.2158 104.0601,23.3159 Q104.0601,25.4077 104.7449,26.4744 Q105.4297,27.541 106.7744,27.541 Q107.4053,27.541 107.9988,27.2712 Q108.5923,27.0015 109.2231,26.4204 Z " fill="#000000"/><text fill="#000000" font-family="sans-serif" font-size="12" lengthAdjust="spacing" textLength="24" x="127.25" y="27.5352">仓库</text><line style="stroke:#A80036;stroke-width:1.5;" x1="58.5" x2="187.5" y1="39" y2="39"/><rect fill="none" height="6" style="stroke:#C82930;stroke-width:1.0;" width="6" x="65.5" y="47"/><text fill="#000000" font-family="sans-serif" font-size="11" lengthAdjust="spacing" textLength="42" x="77.5" y="53.6348">编号: int</text><rect fill="none" height="6" style="stroke:#C82930;stroke-width:1.0;" width="6" x="65.5" y="59.9551"/><text fill="#000000" font-family="sans-serif" font-size="11" lengthAdjust="spacing" textLength="60" x="77.5" y="66.5898">名称: string</text><rect fill="none" height="6" style="stroke:#C82930;stroke-width:1.0;" width="6" x="65.5" y="72.9102"/><text fill="#000000" font-family="sans-serif" font-size="11" lengthAdjust="spacing" textLength="105" x="77.5" y="79.5449">粮食类型: list of 粮食</text><line style="stroke:#A80036;stroke-width:1.5;" x1="58.5" x2="187.5" y1="85.8652" y2="85.8652"/><ellipse cx="68.5" cy="96.8652" fill="#84BE84" rx="3" ry="3" style="stroke:#038048;stroke-width:1.0;"/><text fill="#000000" font-family="sans-serif" font-size="11" lengthAdjust="spacing" textLength="30" x="77.5" y="100.5">入库()</text><ellipse cx="68.5" cy="109.8203" fill="#84BE84" rx="3" ry="3" style="stroke:#038048;stroke-width:1.0;"/><text fill="#000000" font-family="sans-serif" font-size="11" lengthAdjust="spacing" textLength="30" x="77.5" y="113.4551">出库()</text><!--MD5=[70230ed9a2d7f2197ee10835e24253f6]
class 入库--><rect codeLine="10" fill="#FEFECE" filter="url(#f7soainrvy5ln)" height="125.7305" id="入库" style="stroke:#A80036;stroke-width:1.5;" width="98" x="140" y="180"/><ellipse cx="173.9" cy="196" fill="#B4A7E5" rx="11" ry="11" style="stroke:#A80036;stroke-width:1.0;"/><path d="M170.3277,192.2651 L170.3277,190.1069 L177.7071,190.1069 L177.7071,192.2651 L175.2418,192.2651 L175.2418,200.3418 L177.7071,200.3418 L177.7071,202.5 L170.3277,202.5 L170.3277,200.3418 L172.7931,200.3418 L172.7931,192.2651 Z " fill="#000000"/><text fill="#000000" font-family="sans-serif" font-size="12" font-style="italic" lengthAdjust="spacing" textLength="24" x="192.1" y="200.5352">入库</text><line style="stroke:#A80036;stroke-width:1.5;" x1="141" x2="237" y1="212" y2="212"/><rect fill="none" height="6" style="stroke:#C82930;stroke-width:1.0;" width="6" x="148" y="220"/><text fill="#000000" font-family="sans-serif" font-size="11" lengthAdjust="spacing" textLength="64" x="160" y="226.6348">仓库编号: int</text><rect fill="none" height="6" style="stroke:#C82930;stroke-width:1.0;" width="6" x="148" y="232.9551"/><text fill="#000000" font-family="sans-serif" font-size="11" lengthAdjust="spacing" textLength="72" x="160" y="239.5898">粮食类型: 粮食</text><rect fill="none" height="6" style="stroke:#C82930;stroke-width:1.0;" width="6" x="148" y="245.9102"/><text fill="#000000" font-family="sans-serif" font-size="11" lengthAdjust="spacing" textLength="42" x="160" y="252.5449">数量: int</text><rect fill="none" height="6" style="stroke:#C82930;stroke-width:1.0;" width="6" x="148" y="258.8652"/><text fill="#000000" font-family="sans-serif" font-size="11" lengthAdjust="spacing" textLength="51" x="160" y="265.5">时间: date</text><line style="stroke:#A80036;stroke-width:1.5;" x1="141" x2="237" y1="271.8203" y2="271.8203"/><ellipse cx="151" cy="282.8203" fill="#84BE84" rx="3" ry="3" style="stroke:#038048;stroke-width:1.0;"/><text fill="#000000" font-family="sans-serif" font-size="11" lengthAdjust="spacing" textLength="30" x="160" y="286.4551">入库()</text><ellipse cx="151" cy="295.7754" fill="#84BE84" rx="3" ry="3" style="stroke:#038048;stroke-width:1.0;"/><text fill="#000000" font-family="sans-serif" font-size="11" lengthAdjust="spacing" textLength="63" x="160" y="299.4102">通知观察者()</text><!--MD5=[7813b1f2b02a9ea8e12c86e8c5d03690]
class 出库--><rect codeLine="20" fill="#FEFECE" filter="url(#f7soainrvy5ln)" height="112.7754" id="出库" style="stroke:#A80036;stroke-width:1.5;" width="98" x="7" y="186.5"/><ellipse cx="40.9" cy="202.5" fill="#B4A7E5" rx="11" ry="11" style="stroke:#A80036;stroke-width:1.0;"/><path d="M37.3277,198.7651 L37.3277,196.6069 L44.7071,196.6069 L44.7071,198.7651 L42.2418,198.7651 L42.2418,206.8418 L44.7071,206.8418 L44.7071,209 L37.3277,209 L37.3277,206.8418 L39.7931,206.8418 L39.7931,198.7651 Z " fill="#000000"/><text fill="#000000" font-family="sans-serif" font-size="12" font-style="italic" lengthAdjust="spacing" textLength="24" x="59.1" y="207.0352">出库</text><line style="stroke:#A80036;stroke-width:1.5;" x1="8" x2="104" y1="218.5" y2="218.5"/><rect fill="none" height="6" style="stroke:#C82930;stroke-width:1.0;" width="6" x="15" y="226.5"/><text fill="#000000" font-family="sans-serif" font-size="11" lengthAdjust="spacing" textLength="64" x="27" y="233.1348">仓库编号: int</text><rect fill="none" height="6" style="stroke:#C82930;stroke-width:1.0;" width="6" x="15" y="239.4551"/><text fill="#000000" font-family="sans-serif" font-size="11" lengthAdjust="spacing" textLength="72" x="27" y="246.0898">粮食类型: 粮食</text><rect fill="none" height="6" style="stroke:#C82930;stroke-width:1.0;" width="6" x="15" y="252.4102"/><text fill="#000000" font-family="sans-serif" font-size="11" lengthAdjust="spacing" textLength="42" x="27" y="259.0449">数量: int</text><rect fill="none" height="6" style="stroke:#C82930;stroke-width:1.0;" width="6" x="15" y="265.3652"/><text fill="#000000" font-family="sans-serif" font-size="11" lengthAdjust="spacing" textLength="51" x="27" y="272">时间: date</text><line style="stroke:#A80036;stroke-width:1.5;" x1="8" x2="104" y1="278.3203" y2="278.3203"/><ellipse cx="18" cy="289.3203" fill="#84BE84" rx="3" ry="3" style="stroke:#038048;stroke-width:1.0;"/><text fill="#000000" font-family="sans-serif" font-size="11" lengthAdjust="spacing" textLength="30" x="27" y="292.9551">出库()</text><!--MD5=[3dd5b00f3dc806df068186435bcd3f85]
class 主体--><rect codeLine="32" fill="#FEFECE" filter="url(#f7soainrvy5ln)" height="86.8652" id="主体" style="stroke:#A80036;stroke-width:1.5;" width="131" x="273.5" y="199.5"/><ellipse cx="322.75" cy="215.5" fill="#ADD1B2" rx="11" ry="11" style="stroke:#A80036;stroke-width:1.0;"/><path d="M325.2231,221.6431 Q324.6421,221.9419 324.0029,222.0913 Q323.3638,222.2407 322.6582,222.2407 Q320.1514,222.2407 318.8315,220.5889 Q317.5117,218.937 317.5117,215.8159 Q317.5117,212.6865 318.8315,211.0347 Q320.1514,209.3828 322.6582,209.3828 Q323.3638,209.3828 324.0112,209.5322 Q324.6587,209.6816 325.2231,209.9805 L325.2231,212.7031 Q324.5923,212.1221 323.9988,211.8523 Q323.4053,211.5825 322.7744,211.5825 Q321.4297,211.5825 320.7449,212.6492 Q320.0601,213.7158 320.0601,215.8159 Q320.0601,217.9077 320.7449,218.9744 Q321.4297,220.041 322.7744,220.041 Q323.4053,220.041 323.9988,219.7712 Q324.5923,219.5015 325.2231,218.9204 Z " fill="#000000"/><text fill="#000000" font-family="sans-serif" font-size="12" lengthAdjust="spacing" textLength="24" x="343.25" y="220.0352">主体</text><line style="stroke:#A80036;stroke-width:1.5;" x1="274.5" x2="403.5" y1="231.5" y2="231.5"/><rect fill="none" height="6" style="stroke:#C82930;stroke-width:1.0;" width="6" x="281.5" y="239.5"/><text fill="#000000" font-family="sans-serif" font-size="11" lengthAdjust="spacing" textLength="105" x="293.5" y="246.1348">加工厂: list of 加工厂</text><line style="stroke:#A80036;stroke-width:1.5;" x1="274.5" x2="403.5" y1="252.4551" y2="252.4551"/><ellipse cx="284.5" cy="263.4551" fill="#84BE84" rx="3" ry="3" style="stroke:#038048;stroke-width:1.0;"/><text fill="#000000" font-family="sans-serif" font-size="11" lengthAdjust="spacing" textLength="85" x="293.5" y="267.0898">用户注册(加工厂)</text><ellipse cx="284.5" cy="276.4102" fill="#84BE84" rx="3" ry="3" style="stroke:#038048;stroke-width:1.0;"/><text fill="#000000" font-family="sans-serif" font-size="11" lengthAdjust="spacing" textLength="85" x="293.5" y="280.0449">用户注销(加工厂)</text><!--MD5=[832a98b66fd9e87711c71776f5df6e1b]
class 加工厂--><rect codeLine="41" fill="#FEFECE" filter="url(#f7soainrvy5ln)" height="112.7754" id="加工厂" style="stroke:#A80036;stroke-width:1.5;" width="122" x="354" y="366"/><ellipse cx="393.3" cy="382" fill="#ADD1B2" rx="11" ry="11" style="stroke:#A80036;stroke-width:1.0;"/><path d="M395.7731,388.1431 Q395.1921,388.4419 394.5529,388.5913 Q393.9138,388.7407 393.2082,388.7407 Q390.7014,388.7407 389.3815,387.0889 Q388.0617,385.437 388.0617,382.3159 Q388.0617,379.1865 389.3815,377.5347 Q390.7014,375.8828 393.2082,375.8828 Q393.9138,375.8828 394.5612,376.0322 Q395.2087,376.1816 395.7731,376.4805 L395.7731,379.2031 Q395.1423,378.6221 394.5488,378.3523 Q393.9553,378.0825 393.3244,378.0825 Q391.9797,378.0825 391.2949,379.1492 Q390.6101,380.2158 390.6101,382.3159 Q390.6101,384.4077 391.2949,385.4744 Q391.9797,386.541 393.3244,386.541 Q393.9553,386.541 394.5488,386.2712 Q395.1423,386.0015 395.7731,385.4204 Z " fill="#000000"/><text fill="#000000" font-family="sans-serif" font-size="12" lengthAdjust="spacing" textLength="36" x="412.7" y="386.5352">加工厂</text><line style="stroke:#A80036;stroke-width:1.5;" x1="355" x2="475" y1="398" y2="398"/><rect fill="none" height="6" style="stroke:#C82930;stroke-width:1.0;" width="6" x="362" y="406"/><text fill="#000000" font-family="sans-serif" font-size="11" lengthAdjust="spacing" textLength="42" x="374" y="412.6348">编号: int</text><rect fill="none" height="6" style="stroke:#C82930;stroke-width:1.0;" width="6" x="362" y="418.9551"/><text fill="#000000" font-family="sans-serif" font-size="11" lengthAdjust="spacing" textLength="60" x="374" y="425.5898">名称: string</text><rect fill="none" height="6" style="stroke:#C82930;stroke-width:1.0;" width="6" x="362" y="431.9102"/><text fill="#000000" font-family="sans-serif" font-size="11" lengthAdjust="spacing" textLength="94" x="374" y="438.5449">感兴趣的粮食: 粮食</text><rect fill="none" height="6" style="stroke:#C82930;stroke-width:1.0;" width="6" x="362" y="444.8652"/><text fill="#000000" font-family="sans-serif" font-size="11" lengthAdjust="spacing" textLength="94" x="374" y="451.5">通信方式: 通信方式</text><line style="stroke:#A80036;stroke-width:1.5;" x1="355" x2="475" y1="457.8203" y2="457.8203"/><ellipse cx="365" cy="468.8203" fill="#84BE84" rx="3" ry="3" style="stroke:#038048;stroke-width:1.0;"/><text fill="#000000" font-family="sans-serif" font-size="11" lengthAdjust="spacing" textLength="96" x="374" y="472.4551">接收通知(通知方式)</text><!--MD5=[21511b5f98c03e171e6a3d91c86b8077]
class 抽象通信器--><rect codeLine="61" fill="#FEFECE" filter="url(#f7soainrvy5ln)" height="60.9551" id="抽象通信器" style="stroke:#A80036;stroke-width:1.5;" width="111" x="527.5" y="539"/><ellipse cx="551.05" cy="555" fill="#A9DCDF" rx="11" ry="11" style="stroke:#A80036;stroke-width:1.0;"/><path d="M550.9133,550.3481 L549.7595,555.4199 L552.0754,555.4199 Z M549.4191,548.1069 L552.4157,548.1069 L555.7609,560.5 L553.3122,560.5 L552.5485,557.437 L549.2697,557.437 L548.5227,560.5 L546.0739,560.5 Z " fill="#000000"/><text fill="#000000" font-family="sans-serif" font-size="12" font-style="italic" lengthAdjust="spacing" textLength="60" x="566.95" y="559.5352">抽象通信器</text><line style="stroke:#A80036;stroke-width:1.5;" x1="528.5" x2="637.5" y1="571" y2="571"/><line style="stroke:#A80036;stroke-width:1.5;" x1="528.5" x2="637.5" y1="579" y2="579"/><ellipse cx="538.5" cy="590" fill="#84BE84" rx="3" ry="3" style="stroke:#038048;stroke-width:1.0;"/><text fill="#000000" font-family="sans-serif" font-size="11" lengthAdjust="spacing" textLength="85" x="547.5" y="593.6348">发送通知(加工厂)</text><!--MD5=[0c4126dceaac2235657d823873a4f45f]
class 粮食--><rect codeLine="52" fill="#FEFECE" filter="url(#f7soainrvy5ln)" height="112.7754" id="粮食" style="stroke:#A80036;stroke-width:1.5;" width="89" x="582.5" y="186.5"/><ellipse cx="612.35" cy="202.5" fill="#ADD1B2" rx="11" ry="11" style="stroke:#A80036;stroke-width:1.0;"/><path d="M614.8231,208.6431 Q614.2421,208.9419 613.6029,209.0913 Q612.9638,209.2407 612.2582,209.2407 Q609.7514,209.2407 608.4315,207.5889 Q607.1117,205.937 607.1117,202.8159 Q607.1117,199.6865 608.4315,198.0347 Q609.7514,196.3828 612.2582,196.3828 Q612.9638,196.3828 613.6112,196.5322 Q614.2587,196.6816 614.8231,196.9805 L614.8231,199.7031 Q614.1923,199.1221 613.5988,198.8523 Q613.0053,198.5825 612.3744,198.5825 Q611.0297,198.5825 610.3449,199.6492 Q609.6601,200.7158 609.6601,202.8159 Q609.6601,204.9077 610.3449,205.9744 Q611.0297,207.041 612.3744,207.041 Q613.0053,207.041 613.5988,206.7712 Q614.1923,206.5015 614.8231,205.9204 Z " fill="#000000"/><text fill="#000000" font-family="sans-serif" font-size="12" lengthAdjust="spacing" textLength="24" x="629.65" y="207.0352">粮食</text><line style="stroke:#A80036;stroke-width:1.5;" x1="583.5" x2="670.5" y1="218.5" y2="218.5"/><rect fill="none" height="6" style="stroke:#C82930;stroke-width:1.0;" width="6" x="590.5" y="226.5"/><text fill="#000000" font-family="sans-serif" font-size="11" lengthAdjust="spacing" textLength="42" x="602.5" y="233.1348">编号: int</text><rect fill="none" height="6" style="stroke:#C82930;stroke-width:1.0;" width="6" x="590.5" y="239.4551"/><text fill="#000000" font-family="sans-serif" font-size="11" lengthAdjust="spacing" textLength="60" x="602.5" y="246.0898">名称: string</text><rect fill="none" height="6" style="stroke:#C82930;stroke-width:1.0;" width="6" x="590.5" y="252.4102"/><text fill="#000000" font-family="sans-serif" font-size="11" lengthAdjust="spacing" textLength="42" x="602.5" y="259.0449">数量: int</text><line style="stroke:#A80036;stroke-width:1.5;" x1="583.5" x2="670.5" y1="265.3652" y2="265.3652"/><ellipse cx="593.5" cy="276.3652" fill="#84BE84" rx="3" ry="3" style="stroke:#038048;stroke-width:1.0;"/><text fill="#000000" font-family="sans-serif" font-size="11" lengthAdjust="spacing" textLength="30" x="602.5" y="280">发芽()</text><ellipse cx="593.5" cy="289.3203" fill="#84BE84" rx="3" ry="3" style="stroke:#038048;stroke-width:1.0;"/><text fill="#000000" font-family="sans-serif" font-size="11" lengthAdjust="spacing" textLength="63" x="602.5" y="292.9551">通知观察者()</text><!--MD5=[6940969b9614f68e273e9d79a734c264]
class 通信器--><rect codeLine="65" fill="#FEFECE" filter="url(#f7soainrvy5ln)" height="60.9551" id="通信器" style="stroke:#A80036;stroke-width:1.5;" width="111" x="582.5" y="392"/><ellipse cx="616.85" cy="408" fill="#ADD1B2" rx="11" ry="11" style="stroke:#A80036;stroke-width:1.0;"/><path d="M619.3231,414.1431 Q618.7421,414.4419 618.1029,414.5913 Q617.4638,414.7407 616.7582,414.7407 Q614.2514,414.7407 612.9315,413.0889 Q611.6117,411.437 611.6117,408.3159 Q611.6117,405.1865 612.9315,403.5347 Q614.2514,401.8828 616.7582,401.8828 Q617.4638,401.8828 618.1112,402.0322 Q618.7587,402.1816 619.3231,402.4805 L619.3231,405.2031 Q618.6923,404.6221 618.0988,404.3523 Q617.5053,404.0825 616.8744,404.0825 Q615.5297,404.0825 614.8449,405.1492 Q614.1601,406.2158 614.1601,408.3159 Q614.1601,410.4077 614.8449,411.4744 Q615.5297,412.541 616.8744,412.541 Q617.5053,412.541 618.0988,412.2712 Q618.6923,412.0015 619.3231,411.4204 Z " fill="#000000"/><text fill="#000000" font-family="sans-serif" font-size="12" lengthAdjust="spacing" textLength="36" x="635.15" y="412.5352">通信器</text><line style="stroke:#A80036;stroke-width:1.5;" x1="583.5" x2="692.5" y1="424" y2="424"/><line style="stroke:#A80036;stroke-width:1.5;" x1="583.5" x2="692.5" y1="432" y2="432"/><ellipse cx="593.5" cy="443" fill="#84BE84" rx="3" ry="3" style="stroke:#038048;stroke-width:1.0;"/><text fill="#000000" font-family="sans-serif" font-size="11" lengthAdjust="spacing" textLength="85" x="602.5" y="446.6348">发送通知(加工厂)</text><!--MD5=[7cc38c5aec995e59a509ae4055cc6821]
class 抽象通信方式--><rect codeLine="71" fill="#FEFECE" filter="url(#f7soainrvy5ln)" height="86.8652" id="抽象通信方式" style="stroke:#A80036;stroke-width:1.5;" width="111" x="728.5" y="379"/><ellipse cx="746.65" cy="395" fill="#A9DCDF" rx="11" ry="11" style="stroke:#A80036;stroke-width:1.0;"/><path d="M746.5133,390.3481 L745.3595,395.4199 L747.6754,395.4199 Z M745.0191,388.1069 L748.0157,388.1069 L751.3609,400.5 L748.9122,400.5 L748.1485,397.437 L744.8697,397.437 L744.1227,400.5 L741.6739,400.5 Z " fill="#000000"/><text fill="#000000" font-family="sans-serif" font-size="12" font-style="italic" lengthAdjust="spacing" textLength="72" x="761.35" y="399.5352">抽象通信方式</text><line style="stroke:#A80036;stroke-width:1.5;" x1="729.5" x2="838.5" y1="411" y2="411"/><rect fill="none" height="6" style="stroke:#C82930;stroke-width:1.0;" width="6" x="736.5" y="419"/><text fill="#000000" font-family="sans-serif" font-size="11" lengthAdjust="spacing" textLength="72" x="748.5" y="425.6348">通信器: 通信器</text><line style="stroke:#A80036;stroke-width:1.5;" x1="729.5" x2="838.5" y1="431.9551" y2="431.9551"/><ellipse cx="739.5" cy="442.9551" fill="#84BE84" rx="3" ry="3" style="stroke:#038048;stroke-width:1.0;"/><text fill="#000000" font-family="sans-serif" font-size="11" lengthAdjust="spacing" textLength="74" x="748.5" y="446.5898">装饰器(通信器)</text><ellipse cx="739.5" cy="455.9102" fill="#84BE84" rx="3" ry="3" style="stroke:#038048;stroke-width:1.0;"/><text fill="#000000" font-family="sans-serif" font-size="11" lengthAdjust="spacing" textLength="85" x="748.5" y="459.5449">发送通知(加工厂)</text><!--MD5=[b4ad8b517b54e79c55245c7ba5e86d7b]
class 短信--><rect codeLine="77" fill="#FEFECE" filter="url(#f7soainrvy5ln)" height="60.9551" id="短信" style="stroke:#A80036;stroke-width:1.5;" width="111" x="717.5" y="212.5"/><ellipse cx="757.25" cy="228.5" fill="#ADD1B2" rx="11" ry="11" style="stroke:#A80036;stroke-width:1.0;"/><path d="M759.7231,234.6431 Q759.1421,234.9419 758.5029,235.0913 Q757.8638,235.2407 757.1582,235.2407 Q754.6514,235.2407 753.3315,233.5889 Q752.0117,231.937 752.0117,228.8159 Q752.0117,225.6865 753.3315,224.0347 Q754.6514,222.3828 757.1582,222.3828 Q757.8638,222.3828 758.5112,222.5322 Q759.1587,222.6816 759.7231,222.9805 L759.7231,225.7031 Q759.0923,225.1221 758.4988,224.8523 Q757.9053,224.5825 757.2744,224.5825 Q755.9297,224.5825 755.2449,225.6492 Q754.5601,226.7158 754.5601,228.8159 Q754.5601,230.9077 755.2449,231.9744 Q755.9297,233.041 757.2744,233.041 Q757.9053,233.041 758.4988,232.7712 Q759.0923,232.5015 759.7231,231.9204 Z " fill="#000000"/><text fill="#000000" font-family="sans-serif" font-size="12" lengthAdjust="spacing" textLength="24" x="776.75" y="233.0352">短信</text><line style="stroke:#A80036;stroke-width:1.5;" x1="718.5" x2="827.5" y1="244.5" y2="244.5"/><line style="stroke:#A80036;stroke-width:1.5;" x1="718.5" x2="827.5" y1="252.5" y2="252.5"/><ellipse cx="728.5" cy="263.5" fill="#84BE84" rx="3" ry="3" style="stroke:#038048;stroke-width:1.0;"/><text fill="#000000" font-family="sans-serif" font-size="11" lengthAdjust="spacing" textLength="85" x="737.5" y="267.1348">发送通知(加工厂)</text><!--MD5=[9f6386012529caa6ab98ba432afe48f8]
class 电子邮件--><rect codeLine="81" fill="#FEFECE" filter="url(#f7soainrvy5ln)" height="60.9551" id="电子邮件" style="stroke:#A80036;stroke-width:1.5;" width="111" x="863.5" y="212.5"/><ellipse cx="892.45" cy="228.5" fill="#ADD1B2" rx="11" ry="11" style="stroke:#A80036;stroke-width:1.0;"/><path d="M894.9231,234.6431 Q894.3421,234.9419 893.7029,235.0913 Q893.0638,235.2407 892.3582,235.2407 Q889.8514,235.2407 888.5315,233.5889 Q887.2117,231.937 887.2117,228.8159 Q887.2117,225.6865 888.5315,224.0347 Q889.8514,222.3828 892.3582,222.3828 Q893.0638,222.3828 893.7112,222.5322 Q894.3587,222.6816 894.9231,222.9805 L894.9231,225.7031 Q894.2923,225.1221 893.6988,224.8523 Q893.1053,224.5825 892.4744,224.5825 Q891.1297,224.5825 890.4449,225.6492 Q889.7601,226.7158 889.7601,228.8159 Q889.7601,230.9077 890.4449,231.9744 Q891.1297,233.041 892.4744,233.041 Q893.1053,233.041 893.6988,232.7712 Q894.2923,232.5015 894.9231,231.9204 Z " fill="#000000"/><text fill="#000000" font-family="sans-serif" font-size="12" lengthAdjust="spacing" textLength="48" x="909.55" y="233.0352">电子邮件</text><line style="stroke:#A80036;stroke-width:1.5;" x1="864.5" x2="973.5" y1="244.5" y2="244.5"/><line style="stroke:#A80036;stroke-width:1.5;" x1="864.5" x2="973.5" y1="252.5" y2="252.5"/><ellipse cx="874.5" cy="263.5" fill="#84BE84" rx="3" ry="3" style="stroke:#038048;stroke-width:1.0;"/><text fill="#000000" font-family="sans-serif" font-size="11" lengthAdjust="spacing" textLength="85" x="883.5" y="267.1348">发送通知(加工厂)</text><!--MD5=[a9db25672ac2814a3174a2a57d91268a]
class 粮食观察者--><rect codeLine="89" fill="#FEFECE" filter="url(#f7soainrvy5ln)" height="73.9102" id="粮食观察者" style="stroke:#A80036;stroke-width:1.5;" width="92" x="412" y="26.5"/><ellipse cx="427" cy="42.5" fill="#ADD1B2" rx="11" ry="11" style="stroke:#A80036;stroke-width:1.0;"/><path d="M429.4731,48.6431 Q428.8921,48.9419 428.2529,49.0913 Q427.6138,49.2407 426.9082,49.2407 Q424.4014,49.2407 423.0815,47.5889 Q421.7617,45.937 421.7617,42.8159 Q421.7617,39.6865 423.0815,38.0347 Q424.4014,36.3828 426.9082,36.3828 Q427.6138,36.3828 428.2612,36.5322 Q428.9087,36.6816 429.4731,36.9805 L429.4731,39.7031 Q428.8423,39.1221 428.2488,38.8523 Q427.6553,38.5825 427.0244,38.5825 Q425.6797,38.5825 424.9949,39.6492 Q424.3101,40.7158 424.3101,42.8159 Q424.3101,44.9077 424.9949,45.9744 Q425.6797,47.041 427.0244,47.041 Q427.6553,47.041 428.2488,46.7712 Q428.8423,46.5015 429.4731,45.9204 Z " fill="#000000"/><text fill="#000000" font-family="sans-serif" font-size="12" lengthAdjust="spacing" textLength="60" x="441" y="47.0352">粮食观察者</text><line style="stroke:#A80036;stroke-width:1.5;" x1="413" x2="503" y1="58.5" y2="58.5"/><line style="stroke:#A80036;stroke-width:1.5;" x1="413" x2="503" y1="66.5" y2="66.5"/><ellipse cx="423" cy="77.5" fill="#84BE84" rx="3" ry="3" style="stroke:#038048;stroke-width:1.0;"/><text fill="#000000" font-family="sans-serif" font-size="11" lengthAdjust="spacing" textLength="30" x="432" y="81.1348">更新()</text><ellipse cx="423" cy="90.4551" fill="#84BE84" rx="3" ry="3" style="stroke:#038048;stroke-width:1.0;"/><text fill="#000000" font-family="sans-serif" font-size="11" lengthAdjust="spacing" textLength="63" x="432" y="94.0898">通知加工厂()</text><!--MD5=[54f6fdd7be81934937c911f2b231fefc]
link 仓库 to 入库--><path codeLine="29" d="M143.7,120.18 C148.48,133.03 153.66,146.96 158.75,160.66 " fill="none" id="仓库-to-入库" style="stroke:#A80036;stroke-width:1.0;stroke-dasharray:7.0,7.0;"/><polygon fill="none" points="165.44,158.54,165.84,179.73,152.31,163.42,165.44,158.54" style="stroke:#A80036;stroke-width:1.0;"/><!--MD5=[3dda907fd68dca343c145eda638344a9]
link 仓库 to 出库--><path codeLine="30" d="M101.98,120.18 C96.34,135.14 90.14,151.56 84.17,167.37 " fill="none" id="仓库-to-出库" style="stroke:#A80036;stroke-width:1.0;stroke-dasharray:7.0,7.0;"/><polygon fill="none" points="90.67,169.98,77.06,186.22,77.57,165.03,90.67,169.98" style="stroke:#A80036;stroke-width:1.0;"/><!--MD5=[bb53537fc528a71999afcc27dda704c1]
link 主体 to 加工厂--><path codeLine="39" d="M357.2,286.52 C366.76,308.82 378.62,336.54 389.11,361.04 " fill="none" id="主体-to-加工厂" style="stroke:#A80036;stroke-width:1.0;stroke-dasharray:7.0,7.0;"/><polygon fill="#A80036" points="391.19,365.89,391.3213,356.042,389.2204,361.2943,383.9681,359.1934,391.19,365.89" style="stroke:#A80036;stroke-width:1.0;"/><!--MD5=[31765a604964a220e042ef5b9b06966d]
link 加工厂 to 抽象通信器--><path codeLine="50" d="M476.13,476.26 C499,496 524.31,517.85 544.56,535.33 " fill="none" id="加工厂-to-抽象通信器" style="stroke:#A80036;stroke-width:1.0;stroke-dasharray:7.0,7.0;"/><polygon fill="#A80036" points="548.54,538.76,544.3457,529.8489,544.7568,535.4908,539.115,535.9019,548.54,538.76" style="stroke:#A80036;stroke-width:1.0;"/><!--MD5=[4e1e582c8271d2e7a8d64fef76a02510]
link 通信器 to 抽象通信器--><path codeLine="69" d="M626.74,453.19 C619.43,472.45 609.75,497.98 601.35,520.12 " fill="none" id="通信器-to-抽象通信器" style="stroke:#A80036;stroke-width:1.0;stroke-dasharray:7.0,7.0;"/><polygon fill="none" points="607.89,522.63,594.25,538.85,594.8,517.66,607.89,522.63" style="stroke:#A80036;stroke-width:1.0;"/><!--MD5=[bae5cabc00ad5275f46dd67213262f35]
link 抽象通信方式 to 抽象通信器--><path codeLine="85" d="M728.37,466.15 C722.53,470.52 716.66,474.87 711,479 C688.96,495.07 664.47,512.34 642.87,527.37 " fill="none" id="抽象通信方式-to-抽象通信器" style="stroke:#A80036;stroke-width:1.0;stroke-dasharray:7.0,7.0;"/><polygon fill="none" points="646.69,533.24,626.26,538.89,638.71,521.74,646.69,533.24" style="stroke:#A80036;stroke-width:1.0;"/><!--MD5=[d8173943ffadd312ecf9fb4a034e983b]
link 短信 to 抽象通信方式--><path codeLine="86" d="M774.84,273.71 C776.27,296.82 778.31,329.7 780.1,358.59 " fill="none" id="短信-to-抽象通信方式" style="stroke:#A80036;stroke-width:1.0;"/><polygon fill="none" points="787.1,358.32,781.35,378.72,773.12,359.19,787.1,358.32" style="stroke:#A80036;stroke-width:1.0;"/><!--MD5=[746ebe63bf6f57e137b31a1f96462937]
link 电子邮件 to 抽象通信方式--><path codeLine="87" d="M896.4,273.71 C877.97,297.94 851.37,332.92 828.67,362.77 " fill="none" id="电子邮件-to-抽象通信方式" style="stroke:#A80036;stroke-width:1.0;"/><polygon fill="none" points="834.22,367.04,816.54,378.72,823.07,358.56,834.22,367.04" style="stroke:#A80036;stroke-width:1.0;"/><!--MD5=[26222d9e1b43441eb97e5d52b324a8ab]
link 粮食观察者 to 粮食--><path codeLine="94" d="M492.61,100.85 C515.84,125.25 546.92,157.9 573.34,185.64 " fill="none" id="粮食观察者-to-粮食" style="stroke:#A80036;stroke-width:1.0;"/><polygon fill="none" points="582.47,195.23,581.2321,188.1259,574.1984,186.5363,575.4363,193.6403,582.47,195.23" style="stroke:#A80036;stroke-width:1.0;"/><!--MD5=[d46ce6e2c8778c3f71b0e35f7e0ca4f5]
link 粮食观察者 to 入库--><path codeLine="95" d="M411.65,87.16 C369.48,108.65 306.32,143.08 256,180 C253.37,181.93 250.74,183.95 248.11,186.03 " fill="none" id="粮食观察者-to-入库" style="stroke:#A80036;stroke-width:1.0;"/><polygon fill="none" points="238.05,194.31,245.2245,193.5842,247.3139,186.6824,240.1394,187.4082,238.05,194.31" style="stroke:#A80036;stroke-width:1.0;"/><!--MD5=[9a6e1a33e5ef31ff75be29430c18bd05]
link 粮食观察者 to 加工厂--><path codeLine="96" d="M453.64,100.7 C446.29,161.72 431.36,285.7 422.36,360.4 " fill="none" id="粮食观察者-to-加工厂" style="stroke:#A80036;stroke-width:1.0;"/><polygon fill="#A80036" points="421.72,365.69,426.7696,357.2341,422.3191,360.726,418.8272,356.2756,421.72,365.69" style="stroke:#A80036;stroke-width:1.0;"/><!--MD5=[c2586cfb899819ef759a65df80160145]
link 粮食观察者 to 主体--><path codeLine="97" d="M433.63,100.85 C415.35,128.11 390.19,165.65 370.4,195.16 " fill="none" id="粮食观察者-to-主体" style="stroke:#A80036;stroke-width:1.0;stroke-dasharray:7.0,7.0;"/><polygon fill="#A80036" points="367.52,199.45,375.853,194.2001,370.3034,195.2963,369.2072,189.7467,367.52,199.45" style="stroke:#A80036;stroke-width:1.0;"/><!--MD5=[7bde327088141f5b4f3b23fdac504c46]
link 粮食观察者 to 抽象通信器--><path codeLine="98" d="M466.99,100.75 C490.15,194.12 551.62,441.96 574.37,533.71 " fill="none" id="粮食观察者-to-抽象通信器" style="stroke:#A80036;stroke-width:1.0;stroke-dasharray:7.0,7.0;"/><polygon fill="#A80036" points="575.62,538.74,577.338,529.0421,574.4174,533.8868,569.5728,530.9662,575.62,538.74" style="stroke:#A80036;stroke-width:1.0;"/><!--MD5=[5328ed27e45816a3939db82dc144b67d]
@startuml
class 仓库 {
    - 编号: int
    - 名称: string
    - 粮食类型: list of 粮食

    + 入库()
    + 出库()
}

interface 入库 {
    - 仓库编号: int
    - 粮食类型: 粮食
    - 数量: int
    - 时间: date

    + 入库()
    + 通知观察者()
}

interface 出库 {
    - 仓库编号: int
    - 粮食类型: 粮食
    - 数量: int
    - 时间: date

    + 出库()
}

仓库 ..|> 入库
仓库 ..|> 出库

class 主体 {
    - 加工厂: list of 加工厂

    + 用户注册(加工厂)
    + 用户注销(加工厂)
}

主体 ..> 加工厂

class 加工厂 {
    - 编号: int
    - 名称: string
    - 感兴趣的粮食: 粮食
    - 通信方式: 通信方式

    + 接收通知(通知方式)
}

加工厂 ..> 抽象通信器

class 粮食 {
    - 编号: int
    - 名称: string
    - 数量: int

    + 发芽()
    + 通知观察者()
}

abstract 抽象通信器 {
    + 发送通知(加工厂)
}

class 通信器 {
    + 发送通知(加工厂)
}

通信器 ..|> 抽象通信器

abstract 抽象通信方式 {
    - 通信器: 通信器
    + 装饰器(通信器)
    + 发送通知(加工厂)
}

class 短信 {
    + 发送通知(加工厂)
}

class 电子邮件 {
    + 发送通知(加工厂)
}

抽象通信方式 ..|> 抽象通信器
短信 - -|> 抽象通信方式
电子邮件 - -|> 抽象通信方式

class 粮食观察者 {
    + 更新()
    + 通知加工厂()
}

粮食观察者 - -o 粮食
粮食观察者 - -o 入库
粮食观察者 - -> 加工厂
粮食观察者 ..> 主体
粮食观察者 ..> 抽象通信器

@enduml

PlantUML version 1.2022.1(Wed Feb 02 02:19:58 CST 2022)
(GPL source distribution)
Java Runtime: Java(TM) SE Runtime Environment
JVM: Java HotSpot(TM) 64-Bit Server VM
Default Encoding: UTF-8
Language: en
Country: CN
--></g></svg>