<?xml version="1.0" encoding="UTF-8" standalone="no"?><svg xmlns="http://www.w3.org/2000/svg" xmlns:xlink="http://www.w3.org/1999/xlink" contentScriptType="application/ecmascript" contentStyleType="text/css" height="747px" preserveAspectRatio="none" style="width:318px;height:747px;background:#FFFFFF;" version="1.1" viewBox="0 0 318 747" width="318px" zoomAndPan="magnify"><defs><filter height="300%" id="f6mywc26ple57" width="300%" x="-1" y="-1"><feGaussianBlur result="blurOut" stdDeviation="2.0"/><feColorMatrix in="blurOut" result="blurOut2" type="matrix" values="0 0 0 0 0 0 0 0 0 0 0 0 0 0 0 0 0 0 .4 0"/><feOffset dx="4.0" dy="4.0" in="blurOut2" result="blurOut3"/><feBlend in="SourceGraphic" in2="blurOut3" mode="normal"/></filter></defs><g><!--MD5=[a9496347cac541a1b9669f5404a5547c]
class 登陆系统--><rect codeLine="2" fill="#FEFECE" filter="url(#f6mywc26ple57)" height="60.9551" id="登陆系统" style="stroke:#A80036;stroke-width:1.5;" width="80" x="115.5" y="7"/><ellipse cx="130.5" cy="23" fill="#ADD1B2" rx="11" ry="11" style="stroke:#A80036;stroke-width:1.0;"/><path d="M132.9731,29.1431 Q132.3921,29.4419 131.7529,29.5913 Q131.1138,29.7407 130.4082,29.7407 Q127.9014,29.7407 126.5815,28.0889 Q125.2617,26.437 125.2617,23.3159 Q125.2617,20.1865 126.5815,18.5347 Q127.9014,16.8828 130.4082,16.8828 Q131.1138,16.8828 131.7612,17.0322 Q132.4087,17.1816 132.9731,17.4805 L132.9731,20.2031 Q132.3423,19.6221 131.7488,19.3523 Q131.1553,19.0825 130.5244,19.0825 Q129.1797,19.0825 128.4949,20.1492 Q127.8101,21.2158 127.8101,23.3159 Q127.8101,25.4077 128.4949,26.4744 Q129.1797,27.541 130.5244,27.541 Q131.1553,27.541 131.7488,27.2712 Q132.3423,27.0015 132.9731,26.4204 Z " fill="#000000"/><text fill="#000000" font-family="sans-serif" font-size="12" lengthAdjust="spacing" textLength="48" x="144.5" y="27.5352">登陆系统</text><line style="stroke:#A80036;stroke-width:1.5;" x1="116.5" x2="194.5" y1="39" y2="39"/><line style="stroke:#A80036;stroke-width:1.5;" x1="116.5" x2="194.5" y1="47" y2="47"/><ellipse cx="126.5" cy="58" fill="#84BE84" rx="3" ry="3" style="stroke:#038048;stroke-width:1.0;"/><text fill="#000000" font-family="sans-serif" font-size="11" lengthAdjust="spacing" textLength="52" x="135.5" y="61.6348">登陆(用户)</text><!--MD5=[0ecb45e58a8c426c34b62eb4fd135e4a]
class 用户--><rect codeLine="6" fill="#FEFECE" filter="url(#f6mywc26ple57)" height="99.8203" id="用户" style="stroke:#A80036;stroke-width:1.5;" width="78" x="116.5" y="128"/><ellipse cx="141.4" cy="144" fill="#ADD1B2" rx="11" ry="11" style="stroke:#A80036;stroke-width:1.0;"/><path d="M143.8731,150.1431 Q143.2921,150.4419 142.6529,150.5913 Q142.0138,150.7407 141.3082,150.7407 Q138.8014,150.7407 137.4815,149.0889 Q136.1617,147.437 136.1617,144.3159 Q136.1617,141.1865 137.4815,139.5347 Q138.8014,137.8828 141.3082,137.8828 Q142.0138,137.8828 142.6612,138.0322 Q143.3087,138.1816 143.8731,138.4805 L143.8731,141.2031 Q143.2423,140.6221 142.6488,140.3523 Q142.0553,140.0825 141.4244,140.0825 Q140.0797,140.0825 139.3949,141.1492 Q138.7101,142.2158 138.7101,144.3159 Q138.7101,146.4077 139.3949,147.4744 Q140.0797,148.541 141.4244,148.541 Q142.0553,148.541 142.6488,148.2712 Q143.2423,148.0015 143.8731,147.4204 Z " fill="#000000"/><text fill="#000000" font-family="sans-serif" font-size="12" lengthAdjust="spacing" textLength="24" x="157.6" y="148.5352">用户</text><line style="stroke:#A80036;stroke-width:1.5;" x1="117.5" x2="193.5" y1="160" y2="160"/><rect fill="none" height="6" style="stroke:#C82930;stroke-width:1.0;" width="6" x="124.5" y="168"/><text fill="#000000" font-family="sans-serif" font-size="11" lengthAdjust="spacing" textLength="43" x="136.5" y="174.6348">账号: str</text><rect fill="none" height="6" style="stroke:#C82930;stroke-width:1.0;" width="6" x="124.5" y="180.9551"/><text fill="#000000" font-family="sans-serif" font-size="11" lengthAdjust="spacing" textLength="43" x="136.5" y="187.5898">密码: str</text><line style="stroke:#A80036;stroke-width:1.5;" x1="117.5" x2="193.5" y1="193.9102" y2="193.9102"/><ellipse cx="127.5" cy="204.9102" fill="#84BE84" rx="3" ry="3" style="stroke:#038048;stroke-width:1.0;"/><text fill="#000000" font-family="sans-serif" font-size="11" lengthAdjust="spacing" textLength="52" x="136.5" y="208.5449">修改信息()</text><ellipse cx="127.5" cy="217.8652" fill="#84BE84" rx="3" ry="3" style="stroke:#038048;stroke-width:1.0;"/><text fill="#000000" font-family="sans-serif" font-size="11" lengthAdjust="spacing" textLength="30" x="136.5" y="221.5">退出()</text><!--MD5=[3948f51735b92dea4921f04cedb410dd]
class 学生--><rect codeLine="16" fill="#FEFECE" filter="url(#f6mywc26ple57)" height="151.6406" id="学生" style="stroke:#A80036;stroke-width:1.5;" width="131" x="7" y="288"/><ellipse cx="56.25" cy="304" fill="#ADD1B2" rx="11" ry="11" style="stroke:#A80036;stroke-width:1.0;"/><path d="M58.7231,310.1431 Q58.1421,310.4419 57.5029,310.5913 Q56.8638,310.7407 56.1582,310.7407 Q53.6514,310.7407 52.3315,309.0889 Q51.0117,307.437 51.0117,304.3159 Q51.0117,301.1865 52.3315,299.5347 Q53.6514,297.8828 56.1582,297.8828 Q56.8638,297.8828 57.5112,298.0322 Q58.1587,298.1816 58.7231,298.4805 L58.7231,301.2031 Q58.0923,300.6221 57.4988,300.3523 Q56.9053,300.0825 56.2744,300.0825 Q54.9297,300.0825 54.2449,301.1492 Q53.5601,302.2158 53.5601,304.3159 Q53.5601,306.4077 54.2449,307.4744 Q54.9297,308.541 56.2744,308.541 Q56.9053,308.541 57.4988,308.2712 Q58.0923,308.0015 58.7231,307.4204 Z " fill="#000000"/><text fill="#000000" font-family="sans-serif" font-size="12" lengthAdjust="spacing" textLength="24" x="76.75" y="308.5352">学生</text><line style="stroke:#A80036;stroke-width:1.5;" x1="8" x2="137" y1="320" y2="320"/><rect fill="none" height="6" style="stroke:#C82930;stroke-width:1.0;" width="6" x="15" y="328"/><text fill="#000000" font-family="sans-serif" font-size="11" lengthAdjust="spacing" textLength="43" x="27" y="334.6348">学号: str</text><rect fill="none" height="6" style="stroke:#C82930;stroke-width:1.0;" width="6" x="15" y="340.9551"/><text fill="#000000" font-family="sans-serif" font-size="11" lengthAdjust="spacing" textLength="43" x="27" y="347.5898">姓名: str</text><rect fill="none" height="6" style="stroke:#C82930;stroke-width:1.0;" width="6" x="15" y="353.9102"/><text fill="#000000" font-family="sans-serif" font-size="11" lengthAdjust="spacing" textLength="93" x="27" y="360.5449">性别: int/str/bool</text><rect fill="none" height="6" style="stroke:#C82930;stroke-width:1.0;" width="6" x="15" y="366.8652"/><text fill="#000000" font-family="sans-serif" font-size="11" lengthAdjust="spacing" textLength="42" x="27" y="373.5">年级: int</text><rect fill="none" height="6" style="stroke:#C82930;stroke-width:1.0;" width="6" x="15" y="379.8203"/><text fill="#000000" font-family="sans-serif" font-size="11" lengthAdjust="spacing" textLength="42" x="27" y="386.4551">班级: int</text><rect fill="none" height="6" style="stroke:#C82930;stroke-width:1.0;" width="6" x="15" y="392.7754"/><text fill="#000000" font-family="sans-serif" font-size="11" lengthAdjust="spacing" textLength="105" x="27" y="399.4102">所选课程: list of 课程</text><rect fill="none" height="6" style="stroke:#C82930;stroke-width:1.0;" width="6" x="15" y="405.7305"/><text fill="#000000" font-family="sans-serif" font-size="11" lengthAdjust="spacing" textLength="42" x="27" y="412.3652">成绩: int</text><line style="stroke:#A80036;stroke-width:1.5;" x1="8" x2="137" y1="418.6855" y2="418.6855"/><ellipse cx="18" cy="429.6855" fill="#84BE84" rx="3" ry="3" style="stroke:#038048;stroke-width:1.0;"/><text fill="#000000" font-family="sans-serif" font-size="11" lengthAdjust="spacing" textLength="74" x="27" y="433.3203">上交作业(课程)</text><!--MD5=[226d86eeafae001ce9490b6432df7110]
class 老师--><rect codeLine="28" fill="#FEFECE" filter="url(#f6mywc26ple57)" height="112.7754" id="老师" style="stroke:#A80036;stroke-width:1.5;" width="131" x="173" y="307.5"/><ellipse cx="222.25" cy="323.5" fill="#ADD1B2" rx="11" ry="11" style="stroke:#A80036;stroke-width:1.0;"/><path d="M224.7231,329.6431 Q224.1421,329.9419 223.5029,330.0913 Q222.8638,330.2407 222.1582,330.2407 Q219.6514,330.2407 218.3315,328.5889 Q217.0117,326.937 217.0117,323.8159 Q217.0117,320.6865 218.3315,319.0347 Q219.6514,317.3828 222.1582,317.3828 Q222.8638,317.3828 223.5112,317.5322 Q224.1587,317.6816 224.7231,317.9805 L224.7231,320.7031 Q224.0923,320.1221 223.4988,319.8523 Q222.9053,319.5825 222.2744,319.5825 Q220.9297,319.5825 220.2449,320.6492 Q219.5601,321.7158 219.5601,323.8159 Q219.5601,325.9077 220.2449,326.9744 Q220.9297,328.041 222.2744,328.041 Q222.9053,328.041 223.4988,327.7712 Q224.0923,327.5015 224.7231,326.9204 Z " fill="#000000"/><text fill="#000000" font-family="sans-serif" font-size="12" lengthAdjust="spacing" textLength="24" x="242.75" y="328.0352">老师</text><line style="stroke:#A80036;stroke-width:1.5;" x1="174" x2="303" y1="339.5" y2="339.5"/><rect fill="none" height="6" style="stroke:#C82930;stroke-width:1.0;" width="6" x="181" y="347.5"/><text fill="#000000" font-family="sans-serif" font-size="11" lengthAdjust="spacing" textLength="43" x="193" y="354.1348">工号: str</text><rect fill="none" height="6" style="stroke:#C82930;stroke-width:1.0;" width="6" x="181" y="360.4551"/><text fill="#000000" font-family="sans-serif" font-size="11" lengthAdjust="spacing" textLength="43" x="193" y="367.0898">姓名: str</text><rect fill="none" height="6" style="stroke:#C82930;stroke-width:1.0;" width="6" x="181" y="373.4102"/><text fill="#000000" font-family="sans-serif" font-size="11" lengthAdjust="spacing" textLength="93" x="193" y="380.0449">性别: int/str/bool</text><rect fill="none" height="6" style="stroke:#C82930;stroke-width:1.0;" width="6" x="181" y="386.3652"/><text fill="#000000" font-family="sans-serif" font-size="11" lengthAdjust="spacing" textLength="105" x="193" y="393">所授课程: list of 课程</text><line style="stroke:#A80036;stroke-width:1.5;" x1="174" x2="303" y1="399.3203" y2="399.3203"/><ellipse cx="184" cy="410.3203" fill="#84BE84" rx="3" ry="3" style="stroke:#038048;stroke-width:1.0;"/><text fill="#000000" font-family="sans-serif" font-size="11" lengthAdjust="spacing" textLength="74" x="193" y="413.9551">批改作业(课程)</text><!--MD5=[6f627c6d9d410bdd84ac79082e31aad7]
class 课程--><rect codeLine="42" fill="#FEFECE" filter="url(#f6mywc26ple57)" height="99.8203" id="课程" style="stroke:#A80036;stroke-width:1.5;" width="131" x="90" y="500"/><ellipse cx="139.25" cy="516" fill="#ADD1B2" rx="11" ry="11" style="stroke:#A80036;stroke-width:1.0;"/><path d="M141.7231,522.1431 Q141.1421,522.4419 140.5029,522.5913 Q139.8638,522.7407 139.1582,522.7407 Q136.6514,522.7407 135.3315,521.0889 Q134.0117,519.437 134.0117,516.3159 Q134.0117,513.1865 135.3315,511.5347 Q136.6514,509.8828 139.1582,509.8828 Q139.8638,509.8828 140.5112,510.0322 Q141.1587,510.1816 141.7231,510.4805 L141.7231,513.2031 Q141.0923,512.6221 140.4988,512.3523 Q139.9053,512.0825 139.2744,512.0825 Q137.9297,512.0825 137.2449,513.1492 Q136.5601,514.2158 136.5601,516.3159 Q136.5601,518.4077 137.2449,519.4744 Q137.9297,520.541 139.2744,520.541 Q139.9053,520.541 140.4988,520.2712 Q141.0923,520.0015 141.7231,519.4204 Z " fill="#000000"/><text fill="#000000" font-family="sans-serif" font-size="12" lengthAdjust="spacing" textLength="24" x="159.75" y="520.5352">课程</text><line style="stroke:#A80036;stroke-width:1.5;" x1="91" x2="220" y1="532" y2="532"/><rect fill="none" height="6" style="stroke:#C82930;stroke-width:1.0;" width="6" x="98" y="540"/><text fill="#000000" font-family="sans-serif" font-size="11" lengthAdjust="spacing" textLength="54" x="110" y="546.6348">课程号: str</text><rect fill="none" height="6" style="stroke:#C82930;stroke-width:1.0;" width="6" x="98" y="552.9551"/><text fill="#000000" font-family="sans-serif" font-size="11" lengthAdjust="spacing" textLength="54" x="110" y="559.5898">课程名: str</text><rect fill="none" height="6" style="stroke:#C82930;stroke-width:1.0;" width="6" x="98" y="565.9102"/><text fill="#000000" font-family="sans-serif" font-size="11" lengthAdjust="spacing" textLength="105" x="110" y="572.5449">授课老师: list of 老师</text><rect fill="none" height="6" style="stroke:#C82930;stroke-width:1.0;" width="6" x="98" y="578.8652"/><text fill="#000000" font-family="sans-serif" font-size="11" lengthAdjust="spacing" textLength="50" x="110" y="585.5">作业: 作业</text><line style="stroke:#A80036;stroke-width:1.5;" x1="91" x2="220" y1="591.8203" y2="591.8203"/><!--MD5=[dbf66a82255e5917cc2b1c239e949c0a]
class 作业--><rect codeLine="49" fill="#FEFECE" filter="url(#f6mywc26ple57)" height="73.9102" id="作业" style="stroke:#A80036;stroke-width:1.5;" width="99" x="106" y="660"/><ellipse cx="140.35" cy="676" fill="#ADD1B2" rx="11" ry="11" style="stroke:#A80036;stroke-width:1.0;"/><path d="M142.8231,682.1431 Q142.2421,682.4419 141.6029,682.5913 Q140.9638,682.7407 140.2582,682.7407 Q137.7514,682.7407 136.4315,681.0889 Q135.1117,679.437 135.1117,676.3159 Q135.1117,673.1865 136.4315,671.5347 Q137.7514,669.8828 140.2582,669.8828 Q140.9638,669.8828 141.6112,670.0322 Q142.2587,670.1816 142.8231,670.4805 L142.8231,673.2031 Q142.1923,672.6221 141.5988,672.3523 Q141.0053,672.0825 140.3744,672.0825 Q139.0297,672.0825 138.3449,673.1492 Q137.6601,674.2158 137.6601,676.3159 Q137.6601,678.4077 138.3449,679.4744 Q139.0297,680.541 140.3744,680.541 Q141.0053,680.541 141.5988,680.2712 Q142.1923,680.0015 142.8231,679.4204 Z " fill="#000000"/><text fill="#000000" font-family="sans-serif" font-size="12" lengthAdjust="spacing" textLength="24" x="158.65" y="680.5352">作业</text><line style="stroke:#A80036;stroke-width:1.5;" x1="107" x2="204" y1="692" y2="692"/><rect fill="none" height="6" style="stroke:#C82930;stroke-width:1.0;" width="6" x="114" y="700"/><text fill="#000000" font-family="sans-serif" font-size="11" lengthAdjust="spacing" textLength="43" x="126" y="706.6348">内容: str</text><rect fill="none" height="6" style="stroke:#C82930;stroke-width:1.0;" width="6" x="114" y="712.9551"/><text fill="#000000" font-family="sans-serif" font-size="11" lengthAdjust="spacing" textLength="73" x="126" y="719.5898">截止日期: date</text><line style="stroke:#A80036;stroke-width:1.5;" x1="107" x2="204" y1="725.9102" y2="725.9102"/><!--MD5=[3103a7b7c010127a110d7757cf267069]
link 登陆系统 to 用户--><path codeLine="14" d="M155.5,68.21 C155.5,84.12 155.5,104.22 155.5,122.8 " fill="none" id="登陆系统-to-用户" style="stroke:#A80036;stroke-width:1.0;stroke-dasharray:7.0,7.0;"/><polygon fill="#A80036" points="155.5,128,159.5,119,155.5,123,151.5,119,155.5,128" style="stroke:#A80036;stroke-width:1.0;"/><!--MD5=[75183f54f87d6515153fd05fc4b3d99e]
link 学生 to 课程--><path codeLine="37" d="M106.38,440.11 C114.7,458.54 123.44,477.92 131.2,495.13 " fill="none" id="学生-to-课程" style="stroke:#A80036;stroke-width:1.0;stroke-dasharray:7.0,7.0;"/><polygon fill="#A80036" points="133.36,499.93,133.3029,490.0813,131.3028,495.3728,126.0113,493.3728,133.36,499.93" style="stroke:#A80036;stroke-width:1.0;"/><!--MD5=[050d45443a38b0eac98d80b26319156f]
link 老师 to 课程--><path codeLine="38" d="M213.37,420.71 C202.73,444.31 190.37,471.7 179.81,495.1 " fill="none" id="老师-to-课程" style="stroke:#A80036;stroke-width:1.0;stroke-dasharray:7.0,7.0;"/><polygon fill="#A80036" points="177.73,499.73,185.0787,493.1728,179.7872,495.1728,177.7871,489.8813,177.73,499.73" style="stroke:#A80036;stroke-width:1.0;"/><!--MD5=[15833bfd4ab11891a3e3709bbe59f37c]
reverse link 用户 to 学生--><path codeLine="39" d="M124.98,246.66 C118.92,260.09 112.53,274.26 106.37,287.92 " fill="none" id="用户-backto-学生" style="stroke:#A80036;stroke-width:1.0;"/><polygon fill="none" points="118.65,243.66,133.26,228.31,131.41,249.42,118.65,243.66" style="stroke:#A80036;stroke-width:1.0;"/><!--MD5=[8298c2a78b5dff8ea81366178468246c]
reverse link 用户 to 老师--><path codeLine="40" d="M186.08,246.79 C195.07,266.73 204.8,288.3 213.41,307.38 " fill="none" id="用户-backto-老师" style="stroke:#A80036;stroke-width:1.0;"/><polygon fill="none" points="179.59,249.42,177.74,228.31,192.35,243.66,179.59,249.42" style="stroke:#A80036;stroke-width:1.0;"/><!--MD5=[2a43beb5f3cc1107f47cee210ee38634]
reverse link 课程 to 作业--><path codeLine="54" d="M155.5,613.22 C155.5,629.12 155.5,645.69 155.5,659.8 " fill="none" id="课程-backto-作业" style="stroke:#A80036;stroke-width:1.0;"/><polygon fill="none" points="155.5,600.09,151.5,606.09,155.5,612.09,159.5,606.09,155.5,600.09" style="stroke:#A80036;stroke-width:1.0;"/><!--MD5=[1dd8491bf7130b8e0341900110ee1ab3]
@startuml

class 登陆系统 {
    + 登陆(用户)
}

class 用户 {
    - 账号: str
    - 密码: str
    
    + 修改信息()
    + 退出()
}

登陆系统 ..> 用户

class 学生 {
    - 学号: str
    - 姓名: str
    - 性别: int/str/bool
    - 年级: int
    - 班级: int
    - 所选课程: list of 课程
    - 成绩: int

    + 上交作业(课程)
}

class 老师 {
    - 工号: str
    - 姓名: str
    - 性别: int/str/bool
    - 所授课程: list of 课程
    
    + 批改作业(课程)
}

学生 ..> 课程
老师 ..> 课程
用户 <|- - 学生
用户 <|- - 老师

class 课程 {
    - 课程号: str
    - 课程名: str
    - 授课老师: list of 老师
    - 作业: 作业
}

class 作业 {
    - 内容: str
    - 截止日期: date
}

课程 o- - 作业

@enduml

PlantUML version 1.2022.1(Wed Feb 02 02:19:58 CST 2022)
(GPL source distribution)
Java Runtime: Java(TM) SE Runtime Environment
JVM: Java HotSpot(TM) 64-Bit Server VM
Default Encoding: UTF-8
Language: en
Country: CN
--></g></svg>