<?xml version="1.0" encoding="UTF-8" standalone="no"?><svg xmlns="http://www.w3.org/2000/svg" xmlns:xlink="http://www.w3.org/1999/xlink" contentScriptType="application/ecmascript" contentStyleType="text/css" height="437px" preserveAspectRatio="none" style="width:445px;height:437px;background:#FFFFFF;" version="1.1" viewBox="0 0 445 437" width="445px" zoomAndPan="magnify"><defs><filter height="300%" id="fmk1cjl55qo6f" width="300%" x="-1" y="-1"><feGaussianBlur result="blurOut" stdDeviation="2.0"/><feColorMatrix in="blurOut" result="blurOut2" type="matrix" values="0 0 0 0 0 0 0 0 0 0 0 0 0 0 0 0 0 0 .4 0"/><feOffset dx="4.0" dy="4.0" in="blurOut2" result="blurOut3"/><feBlend in="SourceGraphic" in2="blurOut3" mode="normal"/></filter></defs><g><rect fill="#FFFFFF" filter="url(#fmk1cjl55qo6f)" height="236.1738" style="stroke:#A80036;stroke-width:1.0;" width="10" x="17" y="98.4883"/><rect fill="#FFFFFF" filter="url(#fmk1cjl55qo6f)" height="185.5527" style="stroke:#A80036;stroke-width:1.0;" width="10" x="124" y="119.7988"/><rect fill="#FFFFFF" filter="url(#fmk1cjl55qo6f)" height="113.9316" style="stroke:#A80036;stroke-width:1.0;" width="10" x="226" y="191.4199"/><line style="stroke:#A80036;stroke-width:1.0;stroke-dasharray:5.0,5.0;" x1="22" x2="22" y1="88.4883" y2="352.6621"/><line style="stroke:#A80036;stroke-width:1.0;stroke-dasharray:5.0,5.0;" x1="129" x2="129" y1="88.4883" y2="352.6621"/><line style="stroke:#A80036;stroke-width:1.0;stroke-dasharray:5.0,5.0;" x1="231" x2="231" y1="88.4883" y2="352.6621"/><text fill="#000000" font-family="sans-serif" font-size="14" lengthAdjust="spacing" textLength="28" x="5" y="85.5352">学生</text><ellipse cx="22" cy="15" fill="#FEFECE" filter="url(#fmk1cjl55qo6f)" rx="8" ry="8" style="stroke:#A80036;stroke-width:2.0;"/><path d="M22,23 L22,50 M9,31 L35,31 M22,50 L9,65 M22,50 L35,65 " fill="none" filter="url(#fmk1cjl55qo6f)" style="stroke:#A80036;stroke-width:2.0;"/><text fill="#000000" font-family="sans-serif" font-size="14" lengthAdjust="spacing" textLength="28" x="5" y="365.1973">学生</text><ellipse cx="22" cy="378.1504" fill="#FEFECE" filter="url(#fmk1cjl55qo6f)" rx="8" ry="8" style="stroke:#A80036;stroke-width:2.0;"/><path d="M22,386.1504 L22,413.1504 M9,394.1504 L35,394.1504 M22,413.1504 L9,428.1504 M22,413.1504 L35,428.1504 " fill="none" filter="url(#fmk1cjl55qo6f)" style="stroke:#A80036;stroke-width:2.0;"/><text fill="#000000" font-family="sans-serif" font-size="14" lengthAdjust="spacing" textLength="56" x="98" y="85.5352">登陆系统</text><ellipse cx="129" cy="56" fill="#FEFECE" filter="url(#fmk1cjl55qo6f)" rx="12" ry="12" style="stroke:#A80036;stroke-width:2.0;"/><line style="stroke:#A80036;stroke-width:2.0;" x1="117" x2="141" y1="70" y2="70"/><text fill="#000000" font-family="sans-serif" font-size="14" lengthAdjust="spacing" textLength="56" x="98" y="365.1973">登陆系统</text><ellipse cx="129" cy="384.1504" fill="#FEFECE" filter="url(#fmk1cjl55qo6f)" rx="12" ry="12" style="stroke:#A80036;stroke-width:2.0;"/><line style="stroke:#A80036;stroke-width:2.0;" x1="117" x2="141" y1="398.1504" y2="398.1504"/><text fill="#000000" font-family="sans-serif" font-size="14" lengthAdjust="spacing" textLength="56" x="200" y="85.5352">学生界面</text><ellipse cx="231" cy="56" fill="#FEFECE" filter="url(#fmk1cjl55qo6f)" rx="12" ry="12" style="stroke:#A80036;stroke-width:2.0;"/><line style="stroke:#A80036;stroke-width:2.0;" x1="219" x2="243" y1="70" y2="70"/><text fill="#000000" font-family="sans-serif" font-size="14" lengthAdjust="spacing" textLength="56" x="200" y="365.1973">学生界面</text><ellipse cx="231" cy="384.1504" fill="#FEFECE" filter="url(#fmk1cjl55qo6f)" rx="12" ry="12" style="stroke:#A80036;stroke-width:2.0;"/><line style="stroke:#A80036;stroke-width:2.0;" x1="219" x2="243" y1="398.1504" y2="398.1504"/><rect fill="#FFFFFF" filter="url(#fmk1cjl55qo6f)" height="236.1738" style="stroke:#A80036;stroke-width:1.0;" width="10" x="17" y="98.4883"/><rect fill="#FFFFFF" filter="url(#fmk1cjl55qo6f)" height="185.5527" style="stroke:#A80036;stroke-width:1.0;" width="10" x="124" y="119.7988"/><rect fill="#FFFFFF" filter="url(#fmk1cjl55qo6f)" height="113.9316" style="stroke:#A80036;stroke-width:1.0;" width="10" x="226" y="191.4199"/><polygon fill="#A80036" points="112,115.7988,122,119.7988,112,123.7988,116,119.7988" style="stroke:#A80036;stroke-width:1.0;"/><line style="stroke:#A80036;stroke-width:1.0;" x1="27" x2="118" y1="119.7988" y2="119.7988"/><text fill="#000000" font-family="sans-serif" font-size="13" lengthAdjust="spacing" textLength="26" x="34" y="115.0566">登陆</text><line style="stroke:#A80036;stroke-width:1.0;" x1="134" x2="176" y1="149.1094" y2="149.1094"/><line style="stroke:#A80036;stroke-width:1.0;" x1="176" x2="176" y1="149.1094" y2="162.1094"/><line style="stroke:#A80036;stroke-width:1.0;" x1="135" x2="176" y1="162.1094" y2="162.1094"/><polygon fill="#A80036" points="145,158.1094,135,162.1094,145,166.1094,141,162.1094" style="stroke:#A80036;stroke-width:1.0;"/><text fill="#000000" font-family="sans-serif" font-size="13" lengthAdjust="spacing" textLength="78" x="141" y="144.3672">输入账号密码</text><polygon fill="#A80036" points="214,187.4199,224,191.4199,214,195.4199,218,191.4199" style="stroke:#A80036;stroke-width:1.0;"/><line style="stroke:#A80036;stroke-width:1.0;" x1="134" x2="220" y1="191.4199" y2="191.4199"/><text fill="#000000" font-family="sans-serif" font-size="13" lengthAdjust="spacing" textLength="52" x="141" y="186.6777">登陆成功</text><line style="stroke:#A80036;stroke-width:1.0;" x1="236" x2="278" y1="220.7305" y2="220.7305"/><line style="stroke:#A80036;stroke-width:1.0;" x1="278" x2="278" y1="220.7305" y2="233.7305"/><line style="stroke:#A80036;stroke-width:1.0;" x1="237" x2="278" y1="233.7305" y2="233.7305"/><polygon fill="#A80036" points="247,229.7305,237,233.7305,247,237.7305,243,233.7305" style="stroke:#A80036;stroke-width:1.0;"/><text fill="#000000" font-family="sans-serif" font-size="13" lengthAdjust="spacing" textLength="195" x="243" y="215.9883">查看所有课程以及课程对应的作业</text><line style="stroke:#A80036;stroke-width:1.0;" x1="236" x2="278" y1="263.041" y2="263.041"/><line style="stroke:#A80036;stroke-width:1.0;" x1="278" x2="278" y1="263.041" y2="276.041"/><line style="stroke:#A80036;stroke-width:1.0;" x1="237" x2="278" y1="276.041" y2="276.041"/><polygon fill="#A80036" points="247,272.041,237,276.041,247,280.041,243,276.041" style="stroke:#A80036;stroke-width:1.0;"/><text fill="#000000" font-family="sans-serif" font-size="13" lengthAdjust="spacing" textLength="182" x="243" y="258.2988">选择对应的课程上传对应的作业</text><polygon fill="#A80036" points="140,301.3516,130,305.3516,140,309.3516,136,305.3516" style="stroke:#A80036;stroke-width:1.0;"/><line style="stroke:#A80036;stroke-width:1.0;" x1="134" x2="230" y1="305.3516" y2="305.3516"/><text fill="#000000" font-family="sans-serif" font-size="13" lengthAdjust="spacing" textLength="26" x="146" y="300.6094">退出</text><polygon fill="#A80036" points="33,330.6621,23,334.6621,33,338.6621,29,334.6621" style="stroke:#A80036;stroke-width:1.0;"/><line style="stroke:#A80036;stroke-width:1.0;" x1="27" x2="128" y1="334.6621" y2="334.6621"/><text fill="#000000" font-family="sans-serif" font-size="13" lengthAdjust="spacing" textLength="78" x="39" y="329.9199">退出登陆系统</text><!--MD5=[bd5d3202c091bf61dd2f44a76bb3e490]
@startuml

actor 学生
entity 登陆系统
entity 学生界面

activate 学生
学生 -> 登陆系统: 登陆
activate 登陆系统
登陆系统 -> 登陆系统: 输入账号密码
登陆系统 -> 学生界面: 登陆成功
activate 学生界面
学生界面 -> 学生界面: 查看所有课程以及课程对应的作业
学生界面 -> 学生界面: 选择对应的课程上传对应的作业
学生界面 -> 登陆系统: 退出
deactivate 学生界面
deactivate 登陆系统
登陆系统 -> 学生: 退出登陆系统
deactivate 学生

@enduml

PlantUML version 1.2022.1(Wed Feb 02 02:19:58 CST 2022)
(GPL source distribution)
Java Runtime: Java(TM) SE Runtime Environment
JVM: Java HotSpot(TM) 64-Bit Server VM
Default Encoding: UTF-8
Language: en
Country: CN
--></g></svg>