<?xml version="1.0" standalone="no"?><!DOCTYPE svg PUBLIC "-//W3C//DTD SVG 1.1//EN" "http://www.w3.org/Graphics/SVG/1.1/DTD/svg11.dtd"><svg t="1653873031940" class="icon" viewBox="0 0 1024 1024" version="1.1" xmlns="http://www.w3.org/2000/svg" p-id="1611" width="200" height="200" xmlns:xlink="http://www.w3.org/1999/xlink"><defs><style type="text/css">@font-face { font-family: element-icons; src: url("chrome-extension://moombeodfomdpjnpocobemoiaemednkg/fonts/element-icons.woff") format("woff"), url("chrome-extension://moombeodfomdpjnpocobemoiaemednkg/fonts/element-icons.ttf ") format("truetype"); }
@font-face { font-family: feedback-iconfont; src: url("//at.alicdn.com/t/font_1031158_u69w8yhxdu.woff2?t=1630033759944") format("woff2"), url("//at.alicdn.com/t/font_1031158_u69w8yhxdu.woff?t=1630033759944") format("woff"), url("//at.alicdn.com/t/font_1031158_u69w8yhxdu.ttf?t=1630033759944") format("truetype"); }
</style></defs><path d="M992 383.984c17.664 0 32-14.336 32-32v-64c0-11.84-6.528-22.656-16.96-28.224l-480-256a32.208 32.208 0 0 0-30.144 0l-480 256A32.04 32.04 0 0 0 0 287.984v64c0 17.664 14.336 32 32 32h32v448c-35.264 0-64 28.672-64 64v96c0 17.664 14.336 32 32 32h960c17.664 0 32-14.336 32-32v-96c0-35.328-28.736-64-64-64v-448h32z m-32 576H64v-64h896v64z m-832-128v-448h64v448h-64z m128 0v-448h512v448H256z m576 0v-448h64v448h-64z m-768-512v-12.8L512 68.272l448 238.912v12.8H64z m448 256c52.928 0 96 43.072 96 96 0 41.664-26.816 76.864-64 90.112v37.888c0 17.664-14.336 32-32 32s-32-14.336-32-32v-32h-32c-17.664 0-32-14.336-32-32s14.336-32 32-32h64c17.664 0 32-14.4 32-32s-14.336-32-32-32c-52.928 0-96-43.072-96-96 0-41.664 26.816-76.864 64-90.112v-37.888c0-17.664 14.336-32 32-32s32 14.336 32 32v32h32c17.664 0 32 14.336 32 32s-14.336 32-32 32h-64c-17.664 0-32 14.4-32 32s14.336 32 32 32z" fill="#1296db" p-id="1612"></path></svg>